<svg xmlns="http://www.w3.org/2000/svg" viewBox="0 0 64 64" role="img" aria-label="Foundation for Innovation in Society">
  <rect width="64" height="64" rx="14" fill="#142d8c"/>
  <g fill="none" stroke="#ffffff" stroke-width="3.5" stroke-linejoin="round" stroke-linecap="round">
    <path d="M32 46 C 23 43 15 37 13 28 C 21 31 29 38 32 46 Z"/>
    <path d="M32 46 C 41 43 49 37 51 28 C 43 31 35 38 32 46 Z"/>
    <path d="M32 46 C 25 38 19 28 22 18 C 28 24 31 34 32 46 Z"/>
    <path d="M32 46 C 39 38 45 28 42 18 C 36 24 33 34 32 46 Z"/>
    <path d="M32 46 C 27 34 27 22 32 14 C 37 22 37 34 32 46 Z"/>
  </g>
  <circle cx="32" cy="43" r="3.4" fill="#f4b72a"/>
</svg>
